<mxfile host="65bd71144e">
    <diagram id="ydquzuI8TKkKPUxtEkrc" name="Page-1">
        <mxGraphModel dx="454" dy="579" grid="1" gridSize="10" guides="1" tooltips="1" connect="1" arrows="1" fold="1" page="1" pageScale="1" pageWidth="850" pageHeight="1100" math="0" shadow="0">
            <root>
                <mxCell id="0"/>
                <mxCell id="1" parent="0"/>
                <mxCell id="6" value="" style="shape=image;verticalLabelPosition=bottom;labelBackgroundColor=default;verticalAlign=top;aspect=fixed;imageAspect=0;image=data:image/png,iVBORw0KGgoAAAANSUhEUgAAAgQAAAGzCAYAAABQJQ/GAAAgAElEQVR4nOzdd3xUVf7/8dekJ6QASUgBQgmGgEiTUNylGJGfuyIromshqAgIgkRAYlmQKoj0IggsXUHAhUX92ihucaVIE1SqEDpJIEAgpGfm90eWccdMSHCSDM59Px+PeWjuPffcM2HgfuZzPvdck8VisSAiIiKG5ubsAYiIiIjzKSAQERERBQQiIiKigEBERERQQCAiIiIoIBAREREUEIiIiAjg4ewBlIe9e/disVjw9PR09lBERORXyM/Px2Qy0aJFiwo7x+HDh8nLyyuXvry8vGjYsGG59HW7cImAwGKxYLHkQ2GKs4diGBbcyS8MxtM9HROFzh6OIZjRGmKVxWJxp9AcgrvbRUwmfb4rg8USAlTsl7q8vDzy8rLxcr/oWD+FIeU0otuLSwQEnp6eUJjCneEvOXsohpGVV5fDFyZRv/pU/LxOOHs4hpBhznb2EAwjN78+Zy/OILz6RLw9jzt7OIZwKm0Bbu5RFX4eL/eLNApPdKiPgymzgdoO9bFhwwYWLlzI6dOniYqK4sUXX+QPf/gDAGfOnGH8+PHs3LkTPz8/Hn30UQYPHoy7u7v1+JUrV7JkyRIuXLhAkyZNGDlyJI0bN7buL0sfv6QaAhERkUr00UcfMWLECHr27Mmnn35K165dGTZsGHv37iU/P58+ffoAsHr1asaMGcMHH3zA3Llzrcf//e9/Z/Lkybz00kusX7+eWrVq0bt3by5dugRQpj7scYkMgYiISFlYgEKL2eE+TL/2WIuFWbNm8fTTT9OzZ08AXnjhBXbt2sW3337L2bNnOXfuHGvXriUoKIiYmBjS09OZPHkyAwYMwMvLi/nz55OQkEC3bt0AmDhxIp07d+bDDz+kf//+fPnll6X2YY8yBCIiYihmLA69HJGcnMzZs2d56KGHbLYvXryY/v37s2vXLu68806CgoKs+9q2bUtmZiYHDx4kPT2dEydO0K5dO+t+Dw8PWrVqxc6dOwFK7aMkyhCIiIiBWDDjWIYALJw/f54hQ4aU2GLLli12tycnJwOQlZVFnz59OHDgALVq1eKFF14gPj6elJQUwsPDbY6pUaMGAOfPn8fDo+iyHRERUazNoUOHAErto1mzZnbHpgyBiIhIJcnMzATg1VdfpWvXrixZsoTf/e53DBw4kG3btpGTk1Mspe/t7Q1Abm4u2dlFxcX22uTm5gKU2kdJlCEQERHDKKohcCztb6HoG3pJWYCbubFeTp8+fejevTsAjRo14sCBAyxduhQfH59iayXcuIj7+fnh4+MDYLeNr68vQKl9lEQZAhERMRRn1hCEhYUBEBMTY7O9QYMGnDlzhvDwcNLS0mz23fg5LCzMOlVgr82NvkvroyQKCERERCrJnXfeSZUqVdi3b5/N9iNHjhAVFUVcXBwHDhywTi0AbN++nSpVqhAbG0twcDD16tVjx44d1v0FBQXs2rWLuLg4gFL7KIkCAhERMZRCLA69HOHj40Pfvn2ZO3cu//d//8epU6d49913+eabb+jduzedO3cmNDSUIUOGcOjQITZv3sz06dN57rnnrHUBzz33HEuXLuXvf/87P/30E3/5y1/Iycnh0UcfBShTH/aohkBERAzDguPLgDu6iPjAgQPx9fVlxowZpKamEh0dzZw5c2jTpg0AixYtYuzYsfz5z38mKCiIp556ioEDB1qP//Of/8y1a9eYOXMmV65coUmTJixdupTq1asDRQWEpfVhjwICERGRSta7d2969+5td1+dOnVYsmTJTY/v06ePdTXCX9vHLykgEBERQ3H0LgNXpYBAREQMxdFliVyVigpFREREGQIRETEOCzh8p4CrTjgoIBAREUMpdNUruoMUEIiIiKGohsA+1RCIiIiIMgQiImIcRTUEJof7cEUKCERExDgsYHb0iu6iEYGmDEREREQZAhERMRZHpwxclQICERExDNUQlExTBiIiIqIMgYiIGIvZoikDexQQiIiIoaiGwD5NGYiIiIgyBCIiYhwWTJgd/C5sctEMgwICERExFEdrCNzLaRy3GwUEIiJiKI7WELhqQKAaAhEREVGGQEREjMMCFFoc+y7sqgsTKSAQERFDcbSo0FXptyIiIiLKEIiIiJGYymFhIt12KCIi8pumGoKSacpARERElCEQERFjMbtoyt9RCghERMQwLEChg8lxTRmIiIiIy1KGQEREDMXRokJXpYBAREQMxPGnHeq2QxERkd+4otsOHbugq4ZAREREXJYyBCIiYiiO3mXgqhQQiIiIcVjA7GhRoYvOGShMEhEREWUIRETEOCyYymFhIt1lICIi8pvn6F0GrkpTBiIiIqIMgYiIGIvjCxO5JgUEIiJiGEULE+nhRvYoTBIRERFlCERExFjMLnqXgKMUEIiIiIGYyuFph64ZUCggEBERw7Dg+NLFqiEQERERl6UMgYiIGIpZCxPZpYBAREQMRU87tE+/FREREVGGQEREjMOCyeHHH+vhRiIiIi6g0EUv6I7SlIGIiIgoQyAiIsbi6JSBq1JAICIihlG0MJFjUwZamEhERERcljIEIiJiKJoysE8BgYiIGIelHB5u5KIrHSogEBERw7Dg+OOPVUMgIiIiLksZAhERMRSHpwxclAICERExFD3t0D6FSSIiIqIMgYiIGEfRwkSOPtzINSkgEBERAzGVw5SBa045aMpARERElCEQERFjMeu7sF0KCERExDAsQKGDUwauWkOgMElERESUIRAREWPROgT2KUMgIiKGYra4OfRyVGpqKg0bNiz2Wr9+PQAHDx4kISGB5s2bEx8fz4oVK2zHbzYze/Zs2rdvT/PmzenXrx+nT5+2aVNaH/YoQyAiIoZhwUShww83cuz4Q4cO4e3tzebNmzGZfu4rICCAy5cv07t3b+Lj4xk7dizfffcdY8eOpUqVKvTo0QOAefPmsWrVKiZNmkR4eDhTpkyhb9++fPLJJ3h5eZWpD3sUEIiIiFSiI0eOULduXWrUqFFs3/Lly/H09GTcuHF4eHgQHR3NyZMnWbhwIT169CAvL48lS5YwfPhwOnXqBMCMGTNo3749GzdupGvXrqxdu/amfZREAYGBHdztx5K3Iji81w/fKmZa3XuNfm+co2pIAQBnk71YMLomP3zrj7u7hfYPXaHPiHNUCTBb+0g7Y+L9t+uwf6s/FrOJO1tf5/nRZ4msm2f3nFmZbgyIj6XpPZkMn3mqUt6nGFNejolnYltTWGCb4vX2K+S9I98C8M+1oXyyIJKUEz5UC8uj02MX6D74jLXthCeqcWhHuxLPsfbMtmLbdm2qxuTesXb3ye3B2TUEhw8fJjo62u6+Xbt20bp1azw8fr48t23blgULFnDx4kXOnTvH9evXadfu589lYGAgjRs3ZufOnXTt2rXUPkJCQuyeWwGBQR3d78srjzWgxe+vMXrxCdJTPVn6VgRjjtdj5idHycxw59XHGlCtRj7DZ57kSroHi9+MJOWUFxNXHQcgPyefMU/7YyksYOCbZ/H2MbNiSgRJPRqw4KvD+AcVFjvvgtE1ST3jVdlvVwzo9GE/CgvcGDz7KGF1cqzb3dyLbhr7bFE4y8bUo+2D6SSMOMnVSx6snVqbEwf8GDyvKCh+dvxVCrLP2/SbetKHd4Y0oHPP1GLn/HFrILNfvKMC35U4zFI+6xCcP3+eIUOGlLh/y5YtJe47cuQI1apVo2fPniQnJ1OnTh1eeOEFOnToQEpKCjExMTbtb2QSzp8/T0pKCgARERHF2tzYV1oft11AYDabeeedd/jwww+5du0acXFxjBo1itq1aztrSIay6M1Iou/MZsyyZNz++3fDL6CQd9+oScopL/75UVWuXnZn7peHCQouurCHRuQzMiGaH7+tQr3mkPzdGc4nuzNpTTIt2mcCUCs6l74dGrHty0Du//Nlm3N+uyWAf39SlSqBxQMFkfJ24scquHuYaftgOp7etneOmwvhbzNr0bTDFYYtOGLdXq/JdYZ3bs73X1+meiOoeUch3p6ZNsctHVWPuo2v03vsCev27Ew3NsytyUfzauIXUAC4V/j7k9+mgoICjh8/ToMGDXjttdfw9/fn008/5fnnn2fp0qXk5OTg5WX7pcnb2xuA3NxcsrOzAey2ycjIACi1j5I4LSAorShCKs7VS+7s3+rP8FmnrMEAwO//mMHv/1j0gdr9z0CatLluDQYAWna8hp9/Id9+FUC95lCQW/Qtyi/g5zaB1Yq2Xb1s+9G6dsWdmUm16TPyHGvfCauotyZideLHKkRG5xQLBgCuXPAk84onLe+zDVqjYrMJqJ7Pvn94cW+j4n1uej+M499XYcJHP+Dh9XO/X62uwZZVYfSZcJzLqV78bYa+2NzOzOXwLIKIiIibZgFK4uHhwY4dO3B3d8fHxweAJk2acPToURYvXoyPjw95ebZTrjcu4n5+ftZj8vLyrP9/o42vry9AqX2UxCm3Hd4oikhMTKRTp07ExsYyY8YMUlJS2LhxozOGZCjHD/piNpsICi5g0qAoHr7jLv7U4C4mJ0aRmVH0zebUUW9q1beNJN3dISwqjzPHij6Ed7StR60GhSx6M5LzJ724lObB3BG18K1SyD0PZNgcO29kTWo3yOXBXumV8ybF8E4c8MPdw8KbTzWi1x2t6X1nHAtfrU92phtVggpx9zBz8ay3zTGZV9y5nuFB2qni35VyrruxdmptOvS4QIMWmTb77u58mbnb93B/QlqFvidx3I2VCh15ObpSYZUqVWwu5gB33HEHqamphIeHk5Zm+zm68XNYWJh1qsBem7Cwoi9bpfVREqcEBIcOHbppUYRUrIz0on/spg+rjbePhdFLkuk36hw7NgUy6ul6WCxw/Zq7zTf/G/yqFJJ1rehj4+ntwaC3szhx0Jdn2zXmyeZN2PplEG8sSiaizs/R6TefB7HtyyCGTT+FSeuBSCWwWODUQT9STvjQqsslXn/vII8knuGbj4J56+lGeHqbafdQOl8sC+er1aFkXnHn3DEfZg2Kwd3DQm528T6/Wl2DzAwPug8+W2xfeN1cvH3NxQ8S+YWjR4/SsmVLduzYYbP9hx9+oEGDBsTFxbF7924KC3/+93f79u3Uq1eP4OBgYmNj8ff3tzn+6tWrHDhwgLi4OIBS+yiJU6YMylIUcassuJOVV9fhsRnB9WxPAOo3MdH/LXcghIZtwNMvl+mJ/mzb0gCL2UR+YVWy8myj2EKLDxYs5OQHcXz3KZYmBhDbKp9ufTNxc4ONq7wY1yeaN5Zl0rh1IRnpJma+EsDTr+cQUKMmWXlgtnhQUOivP69blGspee5PbJnNMPSvVwmobqZWTBWgCtF3Q5Xq15k/NIhdW2J5Znw+bp65LEiKZv7wBnj5WOj6wnWyMgvw9P5vWraglrXPL5YF07JzLsG1I8nNL/ncheYqAOTm16/It+hyLBbPSjuXw4sLOfDFJjo6mvr16zNu3DjGjh1LtWrVWLt2Ld999x3r1q0jODiYRYsWMWLECPr27cv+/ftZtmwZY8eOBYpqBxISEpg6dSrVq1enZs2aTJkyhfDwcLp06QJAjx49btpHSZwSEJSlKOJW5RcGc/jCJIfHZgSXCo8A66kV9xCHLzS3bg9okgPMZMe3XfGusoNzF1px+ML9NsdeubIYr6rBnLzyMP9YupqA0Ko8PqUvHl5FH6U/jbdwrs97zBttZvCKZ3n/1b8TUjebqPse58D5or9F+eb5ZOREceD8H3FzN9kszCFSXgIbFP337MWft4U1K/qM/7DrYUKatOOPSXDfoDyunM+gakQQ3n5ebFk1j+hWUQBcuPIyAOePppGSvIT7+j/K2YuxNz3v1ayvgW84e3FGBbwr11Y5pZimcrjt8Ncf7+bmxvz585k2bRpDhgzh6tWrNG7cmKVLl1rvDFi0aBETJkyge/fuhIaG8sorr9C9e3drH4mJiRQUFDBy5EhycnKIi4tj8eLFeHoWBVU3goqb9WGPUwKCshRF3CpP93TqV59aLuNzdX7N3HiPQIK919MwdLV1e4abCQiiZvBn1G7gRW7adhqG/lw0U1gIV84H0fHB09SpeorL532IaXaNO2uOtOm/ZTsfPl/hTcPQ1/jhq6oAjGg3xabNnk9/YM+nPzD+g0yatCuouDfrQjKVISizy6lufPeVN3d1yCWk5s+p/CtmNyCUmrU/Jm3fBqoEWYhplQ9F138yLpq4mhZKTPMDQFdCq07Dy+MMu9f44eXrT/yfFuDlY/eUVoF+VQB/aoYMrai355JSLo0EIkpt5ygLjhcVOlpDEBISwltvvVXi/qZNm7JmzZoS97u7u5OUlERSUtKv7sMepwQE/1sUERUVZd2elpZGw4YNf1WfJgrx8zpRekMhpjGE1W7E1v8z82i/E9Z5/X//ozoQRMt7TpN3PZAP59Ug79ppqv73ToOdXwWQc70qbeJP4eOZQ2jdVhzffwEPy0m8/lvJbbHA0b0NCK9jwc/rBHM+Lx7gjX62PnfclUXCyynUis7Fz0tzr2WRb7YzsS12eZi8WPKXu+k++AxPvvrzGu+7Pg/HzT2Eu+45zoqxdbl22ZMJHx+27t+8vDZu7hZa3Z9GAeDlcQZvz+Mc39eQ+nddIyDgeKnndnerBfjj7Vl6W/mZyXSTeRipFE4JCP63KOJGQHCjKCIhIcEZQzIUkwn6vXGOCf3rMnFAHf7QM51TR3xY9nYEv3/wCg3uyiYkMo+Pl4Ty+uMNSHg5hauX3Fk0IZK4+KvcGZdFVh7c1+d3LOh3lJEJ9ene9wLuHha+XB3Mwd1VGPnXouAsplnxi5inp4XA6oV294mUh5CaeXR6PI2P50fi5WMm5u5rHPo2kL+/U5MHnk0hsn4Of3juPBN6NmbZmDq0uv8yP3wTxIZ3avGngWcJq+NhM9Vw6pAfzTr8uulMuf04e6XC25VTAoKyFEVIxWrfNYMxy5JZOSOMUc/UJ6BqIQ/2SueZV4tWZasaXMjkv/3Eu6Nq8vagOvj6F9Kh6xX6jTpn7aNW4wjeXJPJmhkWJg2qg4eXhfqNs5n8t59o2u66s96aCAD9Jh4nLCqHf68LZf3sWlQPz+PPL5+m2wtFn+FmHTNIfOcI62fXYvP7YYTWyqX3uGT+8FxKsYLAjAueVAnS1JarKI8nFroik8VicXQ65FcpLCxk+vTprF+/3loUMWrUKGrVqlX6wb/w/fffQ+Fp7gx/qQJGKvZk5dXl8IVJNAx9TVM1lSRDUwaVJje/PmcvzqBmyFCl/ivJqbQFuLlHcdddd1XYOb7//nvSci+yMP/W5tZ/6XnPx6nhHVKhY3UGp61UWJaiCBERkfKmKQP79HAjERExjNvhLoPblSZSRERERBkCERExEEs5LEzkolMOCghERMRQVENgn6YMRERERBkCERExFmUI7FNAICIihmHB8YDAVe8yUEAgIiKG4uhth65KNQQiIiKiDIGIiBiLagjsU0AgIiKGoRqCkmnKQERERJQhEBERY9GUgX0KCERExEDKYeliF71LQVMGIiIiogyBiIgYiAUsDj/cqHyGcrtRQCAiIoaihYns05SBiIiIKEMgIiLGoXUISqaAQEREDMXhGgIXpYBAREQMResQ2KcaAhEREVGGQEREjEVTBvYpIBAREQPRSoUl0ZSBiIiIKEMgIiLGYQEsDt43qNsORUREXIBWKrRPUwYiIiKiDIGIiBiIHm5UIgUEIiJiKFqYyD5NGYiIiIgyBCIiYiyO3mXgqhQQiIiIYRTddqinHdqjgEBERAxFSxfbpxoCERERUYZARESMRXcZ2KeAQEREDEVFhfZpykBERESUIRAREWNRUaF9CghERMQ4LKZyWLrYNQMKTRmIiIiIMgQiImIsqim0TwGBiIgYhlYqLJmmDEREREQZAhERMRhX/YrvIAUEIiJiKLrt0D4FBCIiYihaqdA+1RCIiIiIMgQiImIsmjKwTwGBiIgYiwICu24aEJw7d+6WOouMjHRoMCIiIuIcNw0I4uPjMZnKHkkdPHjQ4QGJiIhUGEs5FBW6aFHiTQOCiRMn3lJAICIicttz0Qu6o24aEDzyyCOVNQ4RERFxolsqKrx06RKLFy9m69atXLhwgUWLFrF582ZiY2Pp3LlzRY1RRESk3OguA/vKvA7B6dOn6datG2vXriUsLIz09HQKCwtJTk4mMTGRf/7znxU5ThERkfJhcfDlosqcIXj77bcJDg7mvffew8/PjyZNmgAwbdo0cnNzmT9/Pp06daqwgYqIiEjFKXOGYNu2bQwcOJDAwMBihYaPP/44R48eLffBiYiIlDeLxeTQy1XdUg2Bh4f95nl5ebobQUREfhtcOO3viDJnCFq1asWCBQvIysqybjOZTJjNZj744ANatmxZIQMUEREpXyYHX66pzBmCl19+mSeffJIuXbrQpk0bTCYTixcv5tixY5w8eZJVq1ZV5DhFRESkApU5QxATE8O6deto06YNO3bswN3dna1btxIVFcXq1atp1KhRRY5TRESkfOguA7tuqYagbt26TJs2raLGIiIiUvFc+KLuiDJnCACysrJYuXIlQ4cOpU+fPiQlJbFu3Try8vIqanwiIiIuKzk5mRYtWrB+/XrrtoMHD5KQkEDz5s2Jj49nxYoVNseYzWZmz55N+/btad68Of369eP06dM2bUrrw55bWpioa9eujB8/nh9++IHr16+zZ88eRowYwWOPPcbly5fL2pWIiIhzWEzl8yoH+fn5DB8+3KZY//Lly/Tu3ZuoqCjWrVvHoEGDmDp1KuvWrbO2mTdvHqtWrWL8+PGsXr0as9lM3759rV/Oy9KHPWWeMpg0aRImk4kNGzYQGxtr3b5v3z4GDx7MW2+9xeTJk8v8ixAREalsFhx/2mF5zTjMmTMHf39/m21r167F09OTcePG4eHhQXR0NCdPnmThwoX06NGDvLw8lixZwvDhw62LAc6YMYP27duzceNGunbtWmofJSlzhmDr1q28/PLLNsEAQLNmzRg2bBhfffXVrfweREREDGvnzp2sWbOGSZMm2WzftWsXrVu3tln3p23btpw4cYKLFy9y6NAhrl+/Trt27az7AwMDady4MTt37ixTHyUpc4bAz88PT09Pu/uqV6+Ou7t7WbsSERFxnnL4in/+/HmGDBlS4v4tW7aUuO/q1au88sorjBw5koiICJt9KSkpxMTE2GyrUaOG9ZwpKSkAxY6rUaOGdV9pfYSEhNgdV5kzBD179mTWrFmkpaXZbM/MzGTBggU88cQTZe1KRETEeZxcPzBmzBhatGjBQw89VGxfTk4OXl5eNtu8vb0ByM3NJTs7G8Bum9zc3DL1UZKbZgiefvppm5+Tk5O5//77admyJSEhIWRkZLB7927MZjORkZE360pERMRlRERE3DQLUJINGzawa9cuPvnkE7v7fXx8it25d+Mi7ufnh4+PD1D0yIAb/3+jja+vb5n6KMlNAwLLLyovbixPXFBQYE1NNG7cGIDU1NSbdSUiIuJ0JsDk4JSBIzmCdevWkZ6eXuzpwKNHj+azzz4jPDy8WCb+xs9hYWEUFBRYt0VFRdm0adiwIUCpfZTkpgHBe++9d9M3JiIi8pvjxIWJpk6dSk5Ojs22Ll26kJiYSLdu3fjoo49YvXo1hYWF1tq87du3U69ePYKDgwkICMDf358dO3ZYA4KrV69y4MABEhISAIiLi7tpHyW5pYWJSpKVlcW///3v8uhKRESkYjmxhiAsLIw6derYvACCg4MJCwujR48eZGZmMmLECH766SfWr1/PsmXL6N+/P1BUO5CQkMDUqVPZsmULhw4dYujQoYSHh9OlSxeAUvsoSZnvMjh79ixjxozh22+/LXFlwoMHD5a1OxEREfmF4OBgFi1axIQJE+jevTuhoaG88sordO/e3domMTGRgoICRo4cSU5ODnFxcSxevNh6J2BZ+rCnzAHBW2+9xZ49e3jsscfYs2cPvr6+NG/enG+++YYjR44wZ86cX/n2RUREKkl5PKConKccDh8+bPNz06ZNWbNmTYnt3d3dSUpKIikpqcQ2pfVhT5mnDHbu3MnQoUMZOXIkjzzyCN7e3tZnGcTFxf2qaksREZFKp6cd2lXmgOD69evWCsb69etz4MABoChSeeqpp9i+fXvFjFBEREQqXJkDgho1aliXPKxTpw4ZGRlcuHABgKpVq5Kenl4xIxQRESlPyhDYVeaAoGPHjsycOZO9e/dSs2ZNwsPDWbJkCZmZmaxbt+6m9zaKiIjcNm6DJx3ejsocECQmJhIYGMisWbMAGDp0KMuXLycuLo5PPvmE3r17V9ggRUREpGKV+S6DatWq8eGHH1pXO+rWrRuRkZF89913NG3alNatW1fYIEVERMqLoysVuqoyBwQ33HhiEkCrVq1o1apVuQ5IRESkQikgsOuWHm50MyaTieXLlzs8IBEREal8t/Rwo/JqKyIiIrcXPdxIREQMRTUE9t1yDcHt6vwpb4a1bO7sYRhGZMMwEt+HQf+vIecOV3X2cAzB5Onl7CEYRmRMDQYvg9e63s25I7WdPRxDSPrQh/B6lXQyF7510BHl8rRDERER+W1zmQyBiIhIqW7DhxvdLhQQiIiIsbjoBd1RmjIQERGRW8sQXLp0icWLF7N161YuXLjAokWL2Lx5M7GxsXTu3LmixigiIlJudJeBfWXOEJw+fZpu3bqxdu1awsLCSE9Pp7CwkOTkZBITE/nnP/9ZkeMUEREpH3raoV1lzhC8/fbbBAcH89577+Hn50eTJk0AmDZtGrm5ucyfP59OnTpV2EBFRESk4pQ5Q7Bt2zYGDhxIYGAgJpPtPZyPP/44R48eLffBiYiIlDtlCOy6pRoCDw/7zfPy8ooFCSIiIrcj1RDYV+YMQatWrViwYAFZWVnWbSaTCbPZzAcffEDLli0rZIAiIiJS8cqcIXj55Zd58skn6dKlC23atMFkMrF48WKOHTvGyZMnWcN3nAAAACAASURBVLVqVUWOU0REpHxo6WK7ypwhiImJYd26dbRp04YdO3bg7u7O1q1biYqKYvXq1TRq1KgixykiIuI4R+sHXLiO4JZqCOrWrcu0adMqaiwiIiIVTjUE9pU5IDh37lypbSIjIx0ajIiIiDhHmQOC+Pj4Uu8kOHjwoMMDEhERqVDKENhV5oBg4sSJxQKCrKwsdu3axY4dO5g4cWK5D05ERKS8acrAvjIHBI888ojd7T179uStt97ik08+0UqFIiIiv1Hl8rTD+Ph4PctARER+G3SHgV23dJdBSfbt21fiKoYiIiK3FRe+qDuizFfx119/vdg2s9lMSkoKO3fu5NFHHy3XgYmIiEjlKXNAsGPHjmLbTCYT/v7+9OvXjwEDBpTrwERERMqbCceLCl11ncMyBwR//etfiY6OrsixiIiIiJOUuajwqaeeYsOGDRU5FhEREXGSMmcIPD09qVatWkWORUREpOKpqNCuMgcEL730EpMnT+batWvExsbi5+dXrI2WLhYRkduapRwWJnLRgKLMAcGYMWMoLCwkKSmpxDZaulhERG57LnpBd1SZA4I333yzIschIiIiTnTTgODpp59m9OjRREdH071798oak4iISMVRhsCumwYE3377LdevX6+ssYiIiFQ4PdzIvnJ5loGIiIj8tukBBCIiYizKENhVakAwaNAgvLy8Su3IZDKxefPmchmUiIhIRdGUgX2lBgSNGzemevXqlTEWERERcZIyZQiaNm1aGWMRERGpeMoQ2KUaAhERMRYFBHbpLgMRERG5eYage/fueqCRiIi4Dj3LoEQ3DQjeeuutyhqHiIhI5XDRC7qjVEMgIiLGooDALtUQiIiIiDIEIiJiLFqYyD4FBCIiYiwKCOzSlIGIiIgoQyAiIsaiKQP7FBCIiIixKCCwS1MGIiIiogyBiIgYiAXHMwQummFQQCAiIoZicvYAblOaMhARERFlCERExGBcNOXvKAUEIiJiGCYcv+3QVaccFBCIiIixKENgl2oIRERERBkCERExGGUI7FJAICIihqKli+3TlIGIiIgoQyAiIgajDIFdCghERMRQNGVgn6YMREREKlF6ejpJSUm0bduWFi1a8Pzzz3Ps2DHr/oMHD5KQkEDz5s2Jj49nxYoVNsebzWZmz55N+/btad68Of369eP06dM2bUrrwx4FBCIiYhyWcno5YNCgQZw8eZKFCxfyt7/9DR8fH5599lmys7O5fPkyvXv3JioqinXr1jFo0CCmTp3KunXrrMfPmzePVatWMX78eFavXo3ZbKZv377k5eUBlKkPezRlICIihuLMKYOMjAxq1qxJ//79iYmJAWDgwIH86U9/4ujRo2zbtg1PT0/GjRuHh4cH0dHR1uChR48e5OXlsWTJEoYPH06nTp0AmDFjBu3bt2fjxo107dqVtWvX3rSPkihDICIiUkmCgoKYNm2aNRi4dOkSy5YtIzw8nAYNGrBr1y5at26Nh8fP39fbtm3LiRMnuHjxIocOHeL69eu0a9fOuj8wMJDGjRuzc+dOgFL7KIkyBCIiYizlkCE4f/48Q4YMKXH/li1bSu3jjTfeYO3atXh5efHuu+/i5+dHSkqKNVi4oUaNGtZzpqSkABAREVGszY19pfUREhJidzzKEIiIiLE4sX7gfz3zzDOsW7eOrl27MmjQIH788UdycnLw8vKyaeft7Q1Abm4u2dnZAHbb5ObmApTaR0mUIRAREUMpjxqCiIiIMmUBbqZBgwYATJgwgX379vH+++/j4+NjLQ684cZF3M/PDx8fHwDy8vKs/3+jja+vL0CpfZREGQIREZFKcunSJT799FMKCgqs29zc3GjQoAFpaWmEh4eTlpZmc8yNn8PCwqxTBfbahIWFAZTaR0kUEIiIiLE4ccrg4sWLDBs2jG3btlm35efnc+DAAaKjo4mLi2P37t0UFhZa92/fvp169eoRHBxMbGws/v7+7Nixw7r/6tWrHDhwgLi4OIBS+yiJAgIRETEUk8Xi0MsRMTExdOjQgTfffJOdO3dy5MgRXnvtNa5evcqzzz5Ljx49yMzMZMSIEfz000+sX7+eZcuW0b9/f6CodiAhIYGpU6eyZcsWDh06xNChQwkPD6dLly4ApfZREtUQiIiIVKLp06czbdo0hg4dyrVr12jVqhUrV64kMjISgEWLFjFhwgS6d+9OaGgor7zyCt27d7cen5iYSEFBASNHjiQnJ4e4uDgWL16Mp6cnAMHBwaX2YY8CAhERMY7yuFPAweMDAgIYM2YMY8aMsbu/adOmrFmzpsTj3d3dSUpKIikpqcQ2pfVhjwICERExFD3cyD7VEIiIiIgyBCIiYjDKENilgEBERAzDhONTBqZyGcntR1MGIiIiogyBiIgYjKYM7FJAICIihqK7DOxTQCAiIsaigMAu1RCIiIiIMgQiImIsmjKwTwGBiIgYhwVw8AFFrjrloCkDERERUYZARESMRVMG9ikgEBERY1FAYJemDEREREQZAoGQiDwWfHWYsc/VY/82f7ttHu5zgRfGn+Pp1o1IPeNl3R4RlUn/vyTTtF0mhfkmvvvGnyVvRXAu2dtuP27uFmZ+fJScbDdeebRBhbwfkV8KCc9j/sYfGPd8A/ZvD7Run/a3g9wZl1ms/bhBvwNg8ntfERKebbfPlNNePPv7ZsXPFZHLgo0/8vfFYbw/s2Y5vQMpTyazs0dwe1JAYHChkXlMWHUc/6CS/4bUrJ9L77+cL7bdyz2Nv8z5lmuX3Zg7oiZXLnjwwFOXmPnJUQY/EGMTONzw+ItpNGyRzb6tVcr1fYiUJCQilwnvHcE/qPAXeyzUjc1i3V/D+PrT6jZ7cgqLAuN3xtzNlZR0m32NWmbSf9RpPn2/hp2zWRg25QRVAn95LrmtaMrArtsiIFiwYAH/+c9/eO+995w9FMMwmSx0fuwy/Uadu+mTu9zcLAyfeYprlz3w8c232Rfq/zneXmYGPd6AlFNFGYHd/wpg1v8d5dnXzvP2i3Vs2tdvnM0Tiamkp94WHztxcSaThc490uk74jQmO1VkEXVyqRJgZuc/qnJor21mLDKm6DN66lgQ547kWrf7+Rfy2pxj7NgSxIfzI4r12bXXBWpH288oiNzunF5DsHLlSmbOnOnsYRhOvcY5JE46w+YPqzE5MarEdo++cIGqIQWsnlP825CPx1nOnahiDQYALBYT+7f70/q+qzZtPTzNJM06xUeLQzhzzP50gkh5qtcom8ETTrBlfTBThtYvtj/6ziwAjv3oV+Y+nxx8jqrBBcx9o06xfeG1c3jutdPMfK3erx+0VAqTxbGXq3LaV7XU1FRGjx7Njh07qFu3rrOGYVgXznrS+3exXDzvRdN2xedQAerE5JAwLIURPesTHpVXbH+BOYCg4FzcPSwUFvycZ4iok4d/kJmAqgVcu1L0Ees5NBV3TwvvTQ1nwqrjFfOmRP5H2lkvnuvYlIspXjRte7XY/ujGWWRlutFvxGnadL6Cr18h320LZOG42tibQAuNzOVPvVNZOy+CtLO2Qa3JZOHlacl8/Wl1dv8rqILekZQLLUxUIqdlCH788Uc8PT35+OOPadaseGGOVKxrVzy4eL74HP8Nbu4Wkmaf4osPqvP9dvuFhpeyOlI1OI+k2acIj8oloFoB3fteoNW9Rf/4+vgV/bMa0yyLRwdcYNqQKPLznJ6UEoPIzPDgYkrJn/H6jbPw8zeTedWdcc83YOZrdalZN4epHx6ianBOsfbd+6SSn2diw5Iwu/vCa+eyYHztcn0PUjGUIbDPaRmC+Ph44uPjy60/d3c3IhsW/4sqpQuu7fnf/1Yj8lJRcdWfnj5GUDB89mEzIht6UDW8AIAa9UNwr+JLaN1gruU25YMF7ej6+C7uffgQAD/uqs7nq+vTvfcxqtYMw7e6O6+9u51N6+twLbsekQ3B2+8UgP68bpHJw9PZQ/jNCq7l/t//ViMyJhiAz9b68I9P8znyfdHPlzNg9qi6vLn4X3R7JgWA0DpFfx88PAt54Mm9/OeLOgSGRxIY/nPf4bUzeSbpLPPG3U3ViBpU/W9pQUBwFSJj7BUeij3unu7OHoLhuUx1V1BYAInv93b2MH6T/L0OALvoMeIPZOY1xtczmZjQrziW/ioDFjUCoLrfv4Ef6T2zB3mFodxILsV2TeSn62a8c1IxW7zJj6hO25gPsViO02dePyIDVxHkE0StTqNJ7Fh0QasZUhQQJL7/9H/7uVlZo4jjij7j23nktfvJzGtss+///aJtPsdpea87x9LhibF/BCDQZxd+Vb4gqn0fBreN/p/WZmJCR5NZ8Ds6DepPJ+v2T2n98F1E3fcIoAvdbceFv+U7wmUCgozUa6wYvs7Zw/hNatjsEq/NhHUTPufwvh386ZmfiH22gDtCJhRre2f4EA59V40lsx7g2Ul3s//jv/HlqkCbNi9N3ENeiD+zn1/OlA/+jU9ADs0iiwdrLWomsGjSnXzzpe7VLgtlCH69hk3TeXUarJ+0icP79+DmZqbtfedIPVOFYwer2bSduOQi5864YYqC1aM/48LJSzwzZD+BLX2Z/PQ2YJu1bXBYFlPe/4kqXj8R7Pe1TT8RgeuJCFxPUsK9pKeWvXDRqJ6e/CdCawVXyrlcOe3vCJcJCAoLzZw7nOrsYfwmhVQvKipMP32Zc4fzWTPLh82r77Bp0+b+q/R6OZVRz9Tl7HFvzB7p+Hqc4Yl+29m0oiFnjvkAEHVHDk1aXWTVrDDOHU5lxFNReHrZ/u17afIZAGa9UouU03Dtsv7cysLkWfJ8uNxcSPWiupb0M5c5d6RojYAH/3qIS6mevPxoI2u7Bk2uExp5nc/WBNAiCi6cvMS5I2lE1b/I/m1+nDuSZtNvWrKZwV1tMw4Ac/7vAJ+tCuXzVaEkH7pKQb79wl35WWG+1m5wNpcJCKT8XEr15FKq7bfRurFFRVYnDvqSesaLyIaQkduc1LO+vDb3FMsnh+MXUEi/N85z/pQ3f18YWtT+kG+x/rMyi6Ybju7XtyZxnvdnRJI0I5nh04+zZX0wYbXy6DXsLMcP+PHNplq0eLKonZubhdoNcvjnx9WL9VGQ78bR7+0vsnUp1bPEfeJkjt5l4KIUEMivZrF4M/2Vu3nk2X28Nvckeblu7PpHAEvfiiArU/Omcnvbsj6EvFw3HhtwntF//YmcLDe2flmNJW/XIjDs57qWgGoFeHhauJahfy5dgQnHpwxctepJn3Bh/zZ//l/kzW/93LS2OpvWFv+GlHbOj1HPFF/05Wb0DAOpbPu3B/JAnbhi27/+tHqxZYsBAv/nBpiMdE+7x97MrbYXuR3cFgHBpEmTnD0EERExCs0Y2HVbBAQiIiKVRXcZ2Kdl40REREQZAhERMRALYNazDOxRQCAiIsbiohd0RykgEBERQ1ENgX2qIRARERFlCERExEgs5bBSoWumGBQQiIiIoWjKwD5NGYiIiIgyBCIiYjDKENilgEBERIzDAiZHawhcNKDQlIGIiIgoQyAiIgZjdvYAbk8KCERExFAcnjJwUZoyEBEREWUIRETEYJQgsEsBgYiIGIumDOxSQCAiIoailQrtUw2BiIiIKEMgIiIGoykDuxQQiIiIcVjA5Og6BC4aT2jKQERERJQhEBERg9GUgV0KCERExFgUD9ilKQMRERFRhkBERIzDhOPPMjCVz1BuOwoIRETEWFRDYJemDEREREQZAhERMRhH1yFwUQoIRETEOCwWh2sIXHXKQQGBiIgYi4te0B2lGgIRERFRhkBERAxGGQK7FBCIiIixqKjQLk0ZiIiIiDIEIiJiLA7fZeCiFBCIiIixKCCwS1MGIiIiogyBiIgYiAXHMwQummBQhkBERIzFYnHs5aArV64watQoOnToQMuWLXnyySfZtWuXdf+2bdt45JFHaNasGQ888ACffvqpzfG5ubmMHTuWdu3a0aJFC15++WUuXbpk06a0PuxRQCAiIsZidvDloGHDhrF3716mT5/OunXraNSoEX369OH48eMcO3aM/v370759e9avX89jjz3GK6+8wrZt26zHjxkzhv/85z/MmTOH5cuXc/z4cRITE637y9KHPZoyEBERqSQnT57km2++YdWqVdx9990AvPHGG3z99dd88sknpKen07BhQ4YOHQpAdHQ0Bw4cYNGiRbRr147U1FQ2bNjA/PnzadWqFQDTp0/ngQceYO/evbRo0YLly5fftI+SKEMgIiKGYvrvA45+7csR1apVY+HChdx1110/j8dkwmQycfXqVXbt2lXsot22bVt2796NxWJh9+7d1m031KtXj7CwMHbu3AlQah8lUUAgIiIG4mD9gMWCI1WFgYGBdOzYES8vL+u2L7/8kpMnT9K+fXtSUlIIDw+3OaZGjRpkZ2dz+fJlUlNTqVatGt7e3sXapKSkAJTaR0k0ZSAiInKLzp8/z5AhQ0rcv2XLljL1s2fPHl5//XW6dOlCp06dyMnJsQkWAOvPeXl5ZGdnF9sP4O3tTW5uLkCpfZREGQIRETEWs8WxVznZvHkzzz33HM2bN2fq1KlA0YX9lxftGz/7+vri4+Nj96Kem5uLr69vmfooiTIEIiJiHOW0DkFERESZswD2vP/++0yYMIEHHniAt99+2/oNPiIigrS0NJu2aWlp+Pn5ERAQQHh4OFeuXCEvL88mC5CWlkZYWFiZ+iiJMgQiIiKVaNWqVYwfP56ePXsyffp0mwt7q1at+Pbbb23ab9++nZYtW+Lm5sbdd9+N2Wy2FhcCJCcnk5qaSlxcXJn6KIkCAhERMRYnLkyUnJzMxIkTuf/+++nfvz8XL17kwoULXLhwgWvXrtGrVy/279/P1KlTOXbsGEuWLOGLL76gb9++AISFhfHggw8ycuRIduzYwf79+xk2bBitW7emefPmAKX2URJNGYiIiLE48eFGX375Jfn5+WzatIlNmzbZ7OvevTuTJk1i3rx5TJkyheXLl1OrVi2mTJlicxvh+PHjmThxIi+++CIAHTp0YOTIkdb9d9xxR6l92KOAQEREpJIMGDCAAQMG3LRNhw4d6NChQ4n7/fz8ePPNN3nzzTd/dR/2KCAQERFjKcc7BVyJAgIRETEQC1gcfSCBawYUCghERMRYnFhDcDvTXQYiIiKiDIGIiBiIBcdrCFw0waCAQEREjEVTBnZpykBERESUIRAREYNRhsAuBQQiImIsCgjs0pSBiIiIKEMgIiIGY3Z0YSLXpIBAREQMxPEnFrrqfYeaMhARERFlCERExEAsOJ4hcM0EgQICERExGD3t0C4FBCIiYigWh5926JpUQyAiIiLKEIiIiMFoysAuBQQiImIsWqnQLk0ZiIiIiDIEIiJiIBaL4ysVumiGQQGBiIgYi4te0B2lKQMRERFRhkBERIzFoocb2aWAQEREjEVTBnZpykBERESUIRAREYPRwkR2KSAQERHjsFjA0WcZuOiUgwICERExFIsyBHaphkBERESUIRAREYPR44/tUkAgIiKGYcHxKQNXnXDQlIGIiIhgslh+++WSe/bsoSC/gCup15w9FMPw8HQnqEYAGWnXKMgvdPZwDMHk7AEYiPv/fL4L9fmuFEFhAXh4etCyZcsKO8f3339PdlYOV1KvOtRP1bBAfP18uOuuu8ppZLcHl5gyMJlMeHh6EFGvhrOHYjihtYKdPQSRCqPPd+XJz8/HZKrYsNfLywsA33o+5daXK3GJDIGIiIg4RjUEIiIiooBAREREFBCIiIgICghEREQEBQQiIiKCAgIRERFBAYGIiIiggEBERERQQCAiIiIoIBAREREUEIiIiAgKCERERAQFBHKLzGYzs2fPpn379jRv3px+/fpx+vRpZw9LpEIsWLCAXr16OXsYIpVCAYHcknnz5rFq1SrGjx/P6tWrMZvN9O3bl7y8PGcPTaRcrVy5kpkzZzp7GCKVRgGBlFleXh5LliwhMTGRTp06ERsby4wZM0hJSWHjxo3OHp5IuUhNTWXAgAFMnTqVunXrOns4IpVGAYGU2aFDh7h+/Trt2rWzbgsMDKRx48bs3LnTiSMTKT8//vgjnp6efPzxxzRr1szZwxGpNB7OHoD8dqSkpAAQERFhs71GjRrWfSK/dfHx8cTHxzt7GCKVThkCKbPs7GwAvLy8bLZ7e3uTm5vrjCGJiEg5UUAgZebj4wNQrIAwNzcXX19fZwxJRETKiQICKbMbUwVpaWk229PS0ggLC3PGkEREpJwoIJAyi42Nxd/fnx07dli3Xb16lQMHDhAXF+fEkYmIiKNUVChl5uXlRUJCAlOnTqV69erUrFmTKVOmEB4eTpcuXZw9PBERcYACArkliYmJFBQUMHLkSHJycoiLi2Px4sV4eno6e2giIuIAk8VisTh7ECIiIuJcqiEQERERBQQiIiKigEBERERQQCAiIiIoIBAREREUEIiIiAgKCERuS7obWEQqmwICcTm9evWiYcOGNq8mTZrQqVMnxo4dS0ZGRoWde/369TRs2JAzZ84AMGfOHBo2bFjm41NSUnj++ec5e/asw2M5c+YMDRs2ZP369SW26dWrF7169bqlfn/NMfb88nclIs6llQrFJTVu3JjRo0dbf87Pz+fHH39k+vTpHDx4kA8++ACTyVTh43jsscdo3759mdtv3bqVf/3rXxU4IhER+xQQiEvy9/enefPmNtvi4uK4fv06s2fPZt++fcX2V4Tw8HDCw8Mr/DwiIo7SlIEYSpMmTQA4d+4cUJT+Hj58OImJiTRv3pzevXsDkJuby+TJk+nYsSNNmjThoYce4rPPPrPpy2w2M2/ePDp16kSzZs0YOHBgsekIe1MGGzZsoHv37jRr1oxOnToxbdo08vLyWL9+Pa+//joA9913H6+99pr1mA8//JAHH3zQOvUxZ84cCgsLbfrduHEj3bp1o2nTpnTv3p1Dhw7d8u/n0qVLjB07lnvvvZcmTZrQunVrBg0aZDetP3fuXO655x5atGjBwIEDOX36tM3+I0eO0L9/f1q2bEnLli0ZNGhQsTYicvtQhkAMJTk5GYDatWtbt33++ed069aNd999F7PZjMViYdCgQezZs4fExESio6PZtGkTQ4cOJS8vj4cffhiAKVOmsGLFCl544QWaNWvG559/zrRp0256/pUrVzJu3Dgee+wxhg0bxunTp5k8eTIZGRkMGTKEF154gXfffZd33nnHGkgsWLCAGTNmkJCQwOuvv87BgweZM2cO58+fZ+LEiQB89dVXJCYm8tBDD5GUlMTBgwdJSkq6pd+NxWKhf//+ZGRkMHz4cEJCQjh8+DAzZ85k9OjRLF682Np29+7dpKenM2rUKAoLC5k2bRpPP/00n3zyCf7+/iQnJ/PEE09Qv3593n77bQoKCnj33Xd58skn+eijjwgODr6lsYlIxVNAIC7JYrFQUFBg/TkjI4Nvv/2Wd999lxYtWlgzBQCenp6MHTsWLy8vAL755hu+/vprZsyYwR//+EcA2rdvT3Z2NlOnTqVr165kZWXx3nvv0bt3b1588UVrm7S0NL7++mu7YzKbzcydO5fOnTvz5ptvWrdnZ2fz6aefEhAQQFRUFACNGjWiVq1aXLt2jXnz5vH4448zcuRIAH7/+99TtWpVRo4cSe/evbnjjjuYO3cuTZs2ZcqUKdaxAKUGKP8rLS0NX19fXn31VVq1agVAmzZtOHXqFGvWrLFp6+7uzpIlS6zTIfXr1+fhhx9mw4YNJCQk8M477+Dr68uyZcvw9/cHoF27dnTu3JlFixbx6quvlnlcIlI5FBCIS9q5cyd33nmnzTY3Nzfuuecexo0bZ1NQWL9+fWswALBt2zZMJhMdO3a0CSri4+P5+OOPOXr0KBcuXCA/P597773X5hx/+MMfSgwIkpOTSU9P5/7777fZ3qdPH/r06WP3mL1795KTk0N8fHyxsUBR8FK7dm1+/PFHXnrppWJjuZWAICwsjBUrVmCxWDhz5gwnT57k+PHj7Nmzh7y8PJu2LVu2tKmNaNSoEbVr12bnzp0kJCSwfft2WrdujY+Pj3Xc/v7+tGrViq1bt5Z5TCJSeRQQiEu68847GTt2LAAmkwlvb28iIiKs31b/V5UqVWx+vnLlChaLhZYtW9rtOy0tjatXrwJQrVo1m32hoaEljunKlSsAt5Quv3HM888/X+JYMjIysFgsxcZSo0aNMp/nho8//pjp06dz/vx5qlatSqNGjfDx8SnWLiQkpNi24OBg6+/lypUrfPbZZ8XqLgCqV69+y+MSkYqngEBcUpUqVbjrrrt+1bEBAQH4+fmxYsUKu/vr1KnD/v37AUhPT6d+/frWfTcu4PYEBgYCRYV7/+vy5cscOHCAFi1alHjM1KlTqVu3brH9ISEhVK1aFTc3Ny5evGiz72ZjsWfXrl28+uqr9OrViz59+hAWFgbA5MmT2b17t01be2s5XLhwwfoeAgICuOeee6xFmv/Lw0P/7IjcjnSXgcgvtG7dmqysLCwWC3fddZf1deTIEebOnUtBQQEtWrTAx8eHL774wubYf/zjHyX2W79+fapVq1aszUcffcTzzz9Pfn4+bm62fyWbNWuGp6cnqampNmPx8PBg+vTpnDlzBm9vb1q0aMHGjRttVjj86quvbul97927F7PZzODBg63BQGFhoTXFbzabrW13797NtWvXrD/v27ePs2fP0rZtW6Dod/jTTz/RqFEj65ibNGnCsmXL2LRp0y2NS0Qqh0J1kV/o2LEjcXFxDBw4kIEDBxIdHc3+/fuZPXs27du3t6a8Bw4cyMyZM/H19aVt27b861//umlA4O7uzuDBgxk3bhzBwcHEx8eTnJzM7Nmz6dmzJ0FBQdaMwKZNm+jQoQPR0dH07duXWbNmkZmZSZs2bUhNTWXWrFmYTCZiY2MBGDZsGM888wwvvvgijz/+OMnJycyfP/+W3nfTpk0BGDduHD169CAjI4OVFM+0pgAAAaZJREFUK1dab1/MysqyTrmYzWaef/55BgwYwOXLl5k2bRoxMTF069bN+rt54okn6N+/P08++STe3t6sWbOGzZs3M3v27Fsal4hUDgUEIr/g5ubGwoULmTVrFgsWLCA9PZ2wsDB69+7NoEGDrO369++Pn58fy5cvZ/ny5bRo0YJXX32VMWPGlNh3z5498fPzY/HixaxZs4bw8HD69etHv379gKKq/nvuuYdp06axbds2Fi5cyJAhQwgNDWXVqlUsWrSIoKAg2rVrx7BhwwgICACgVatW/PWvf2X69Om8+OKL1KpVi4kTJzJgwIAyv+82bdowatQoli5dyhdffEFISAht2rThnXfeYdCgQezevZuOHTsC0LlzZyIjI0lKSqKgoIB7772XESNG4O3tDUBsbCwrV65kxowZvPLKK1gsFmJiYpg7dy733XffLf+ZiEjFM1n0FBURERHDUw2BiIiIKCAQERERBQQiIiKCAgIRERFBAYGIiIiggEBERERQQCAiIiIoIBAREREUEIiIiAgKCEREROT/t1sHAgAAAACC9qdepChKCACAasYKZvCDPwHdAAAAAElFTkSuQmCC;" vertex="1" parent="1">
                    <mxGeometry x="80" y="170" width="516" height="435" as="geometry"/>
                </mxCell>
            </root>
        </mxGraphModel>
    </diagram>
</mxfile>